{"title":"Enders Game 2013 1080p WEB-DL H264 Pimp4003","uid":9539867,"size":2462149595,"categoryP":"video","categoryS":"hd___movies","magnet":"?xt=urn:btih:af9ae4b9948ba5dd6a071d5b1728116e35986fba&amp;dn=Enders+Game+2013+1080p+WEB-DL+H264+Pimp4003&amp;tr=udp%3A%2F%2Ftracker.openbittorrent.com%3A80&amp;tr=udp%3A%2F%2Fopen.demonii.com%3A1337&amp;tr=udp%3A%2F%2Ftracker.coppersurfer.tk%3A6969&amp;tr=udp%3A%2F%2Fexodus.desync.com%3A6969","seeders":1,"leechers":0,"uploader":"shawnmurthy","files":-1,"time":1391018006,"description":"Get all Pimp4003 newest releases first at \n\nWWW.PIMP4003.NET with VIP downloads speed\n\nRegister here and you can chat, request movies, view upcoming uploads and much more\n\nUPLOAD UNLIMITED IMAGES AND UP TO 10MB IN FILE SIZES FOR FREE....\n &lt;a href=&quot;\nhttp://www.piczhub.com&quot; rel=&quot;nofollow&quot; target=&quot;_NEW&quot;&gt;\nhttp://www.piczhub.com&lt;/a&gt;\n\n\nPIMP4003 AND PIMPRG PRESENTS \n\nEnders Game 2013 1080p WEB-DL H264 Pimp4003\n &lt;a href=&quot;\nhttp://www.imdb.com/title/tt1731141/&quot; rel=&quot;nofollow&quot; target=&quot;_NEW&quot;&gt;\nhttp://www.imdb.com/title/tt1731141/&lt;/a&gt;\n\nYoung Ender Wiggin is recruited by the International Military to lead the fight against the Formics, a genocidal alien race which nearly annihilated the human race in a previous invasion.\n\nDirector: Gavin Hood\nWriters: Gavin Hood (screenplay), Orson Scott Card (based on the book Ender's Game by)\nStars: Harrison Ford, Asa Butterfield, Hailee Steinfeld | See full cast and crew Â»\n\nVideo\nID                                       : 1\nFormat                                   : AVC\nFormat/Info                              : Advanced Video Codec\nFormat profile                           : &lt;a class=&quot;__cf_email__&quot; href=&quot;/cdn-cgi/l/email-protection&quot; data-cfemail=&quot;9fd2fef6f1dfd3abb1af&quot;&gt;[email&amp;#160;protected]&lt;/a&gt;&lt;script cf-hash='f9e31' type=&quot;text/javascript&quot;&gt;\n/* &lt;![CDATA[ */!function(){try{var t=&quot;currentScript&quot;in document?document.currentScript:function(){for(var t=document.getElementsByTagName(&quot;script&quot;),e=t.length;e--;)if(t[e].getAttribute(&quot;cf-hash&quot;))return t[e]}();if(t&amp;&amp;t.previousSibling){var e,r,n,i,c=t.previousSibling,a=c.getAttribute(&quot;data-cfemail&quot;);if(a){for(e=&quot;&quot;,r=parseInt(a.substr(0,2),16),n=2;a.length-n;n+=2)i=parseInt(a.substr(n,2),16)^r,e+=String.fromCharCode(i);e=document.createTextNode(e),c.parentNode.replaceChild(e,c)}}}catch(u){}}();/* ]]&gt; */&lt;/script&gt;\nFormat settings, CABAC                   : Yes\nFormat settings, ReFrames                : 4 frames\nCodec ID                                 : avc1\nCodec ID/Info                            : Advanced Video Coding\nDuration                                 : 1h 53mn\nBit rate                                 : 2 719 Kbps\nWidth                                    : 1 912 pixels\nHeight                                   : 792 pixels\nDisplay aspect ratio                     : 2.40:1\nFrame rate mode                          : Variable\nFrame rate                               : 23.976 fps\nMinimum frame rate                       : 23.810 fps\nMaximum frame rate                       : 24.390 fps\nColor space                              : YUV\nChroma subsampling                       : 4:2:0\nBit depth                                : 8 bits\nScan type                                : Progressive\nBits/(Pixel*Frame)                       : 0.075\nStream size                              : 2.16 GiB (94%)\nWriting library                          : x264 core 130 r2273 b3065e6\nEncoded date                             : UTC 2014-02-04 17:58:49\nTagged date                              : UTC 2014-02-04 19:15:31\nColor primaries                          : BT.709\nTransfer characteristics                 : BT.709\nMatrix coefficients                      : BT.709\n\nAudio\nID                                       : 2\nFormat                                   : AAC\nFormat/Info                              : Advanced Audio Codec\nFormat profile                           : LC\nCodec ID                                 : 40\nDuration                                 : 1h 53mn\nBit rate mode                            : Variable\nBit rate                                 : 160 Kbps\nMaximum bit rate                         : 198 Kbps\nChannel(s)                               : 2 channels\nChannel positions                        : Front: L R\nSampling rate                            : 48.0 KHz\nCompression mode                         : Lossy\nStream size                              : 130 MiB (6%)\nLanguage                                 : English\nEncoded date                             : UTC 2014-02-04 17:58:49\nTagged date                              : UTC 2014-02-04 19:15:30\n &lt;a href=&quot;\nhttp://someimage.com/riytlQU&quot; rel=&quot;nofollow&quot; target=&quot;_NEW&quot;&gt;\nhttp://someimage.com/riytlQU&lt;/a&gt; &lt;a href=&quot;\nhttp://someimage.com/pM0cx5S&quot; rel=&quot;nofollow&quot; target=&quot;_NEW&quot;&gt;\nhttp://someimage.com/pM0cx5S&lt;/a&gt; &lt;a href=&quot;\nhttp://someimage.com/LCr8GRv&quot; rel=&quot;nofollow&quot; target=&quot;_NEW&quot;&gt;\nhttp://someimage.com/LCr8GRv&lt;/a&gt; &lt;a href=&quot;\nhttp://someimage.com/M7HmCNh&quot; rel=&quot;nofollow&quot; target=&quot;_NEW&quot;&gt;\nhttp://someimage.com/M7HmCNh&lt;/a&gt; &lt;a href=&quot;\nhttp://someimage.com/VaAcjYw&quot; rel=&quot;nofollow&quot; target=&quot;_NEW&quot;&gt;\nhttp://someimage.com/VaAcjYw&lt;/a&gt;\n","torrent":{"xt":"urn:btih:af9ae4b9948ba5dd6a071d5b1728116e35986fba","amp;dn":"Enders+Game+2013+1080p+WEB-DL+H264+Pimp4003","amp;tr":["udp%3A%2F%2Ftracker.openbittorrent.com%3A80","udp%3A%2F%2Fopen.demonii.com%3A1337","udp%3A%2F%2Ftracker.coppersurfer.tk%3A6969","udp%3A%2F%2Fexodus.desync.com%3A6969"],"infoHash":"af9ae4b9948ba5dd6a071d5b1728116e35986fba","infoHashBuffer":{"type":"Buffer","data":[175,154,228,185,148,139,165,221,106,7,29,91,23,40,17,110,53,152,111,186]},"announce":[],"urlList":[]}}